<svg width="34" height="29" viewBox="0 0 34 29" fill="none" xmlns="http://www.w3.org/2000/svg">
<path d="M12 12H24.5M12 15.5H20.5M33 13.0739C33.0059 14.9488 32.4748 16.7982 31.45 18.4717C30.2348 20.477 28.3668 22.1637 26.055 23.3428C23.7433 24.522 21.0792 25.147 18.3611 25.1478C16.088 25.1527 13.8456 24.7147 11.8167 23.8694L2 26.5683L5.27222 18.4717C4.24738 16.7982 3.71629 14.9488 3.72222 13.0739C3.72327 10.8321 4.48105 8.63479 5.91068 6.72811C7.3403 4.82143 9.38532 3.28068 11.8167 2.27845C13.8456 1.43318 16.088 0.995152 18.3611 1.00004H19.2222C22.8119 1.16338 26.2024 2.41306 28.7446 4.50979C31.2868 6.60653 32.8019 9.40298 33 12.3637V13.0739Z" stroke="#FF421B" stroke-width="2" stroke-linecap="round"/>
</svg>
