<svg width="20" height="22" viewBox="0 0 20 22" fill="none" xmlns="http://www.w3.org/2000/svg">
<g clip-path="url(#clip0_1865_7691)">
<path d="M7 17.8513H11.114L8.3865 20.5766" stroke="black" stroke-width="0.8" stroke-linecap="round" stroke-linejoin="round"/>
<path d="M8.83594 2.41968C8.83594 2.42702 8.83888 2.43435 8.84034 2.44316L11.1125 17.8499" stroke="black" stroke-width="0.8" stroke-linecap="round" stroke-linejoin="round"/>
<path d="M19.7055 6.28094V19.1781C19.7055 20.1306 18.9329 20.9025 17.9797 20.9025H9.47855C8.62814 20.9025 7.87173 20.3639 7.59414 19.5626L7.00076 17.8514H1.87628C1.00091 17.8514 0.292969 17.1426 0.292969 16.2694V2.67947C0.292969 1.80626 1.00238 1.09741 1.87628 1.09741H7.22695C8.03917 1.09741 8.72948 1.69179 8.84992 2.49456L9.17892 4.69888H18.1222C18.9961 4.69888 19.7055 5.40772 19.7055 6.28094Z" stroke="black" stroke-width="0.8" stroke-linecap="round" stroke-linejoin="round"/>
<path d="M5.49663 6.41455L7.66745 12.1337H6.83907L6.29123 10.6207H3.74L3.18775 12.1337H2.35938L4.5346 6.41455H5.49663ZM6.04447 9.97199L5.01488 6.97517L3.97794 9.97199H6.04447Z" fill="black"/>
<path d="M12.1836 14.6286C13.0751 14.5229 13.8257 14.2294 14.4352 13.7495L14.2604 13.4897C13.952 13.0318 13.6626 12.5064 13.3924 11.9135L13.3615 11.8446C13.5701 11.8211 13.761 11.7609 13.9373 11.667C14.0372 12.2452 14.3324 12.8234 14.8185 13.4017C15.1989 12.9467 15.4589 12.2775 15.5999 11.3925H12.9738C12.8225 11.3925 12.6198 11.4043 12.3687 11.4278C12.3775 11.2957 12.3819 11.1974 12.3819 11.1298C12.3819 11.0653 12.3775 10.9669 12.3687 10.8319C12.5097 10.8407 12.6154 10.8481 12.6859 10.8539C12.8005 10.8627 12.8798 10.8671 12.9238 10.8671H16.6985C16.8586 10.8671 17.0437 10.8539 17.2523 10.829C17.2405 10.9611 17.2361 11.0594 17.2361 11.124C17.2361 11.1885 17.242 11.2869 17.2523 11.4175C17.0819 11.4013 16.8748 11.3925 16.628 11.3925H16.1154C15.9377 12.4976 15.6205 13.2696 15.1622 13.7055C15.4648 13.9476 15.7776 14.1208 16.0993 14.2235C16.4209 14.3263 16.8674 14.3967 17.4388 14.4363C17.2214 14.6154 17.0731 14.8531 16.9923 15.151C16.6266 15.0659 16.2315 14.9133 15.8041 14.6961C15.3767 14.4789 15.0374 14.2573 14.7877 14.0313C14.3823 14.36 14.0548 14.5919 13.8051 14.7298C13.5554 14.8663 13.1779 15.0219 12.6727 15.1951C12.5434 14.9382 12.3804 14.7489 12.1851 14.6286H12.1836ZM14.9008 9.8457C14.9184 9.93669 14.9654 10.0717 15.0403 10.2508L15.1417 10.5002C15.149 10.5179 15.1725 10.5663 15.2107 10.6455C15.0153 10.691 14.8171 10.7497 14.6158 10.8231C14.5542 10.5384 14.4455 10.2757 14.2927 10.035C14.5057 9.99246 14.7084 9.93082 14.9008 9.8457Z" fill="black"/>
</g>
<defs>
<clipPath id="clip0_1865_7691">
<rect width="20" height="20.3922" fill="white" transform="translate(0 0.803955)"/>
</clipPath>
</defs>
</svg>
