<svg width="48" height="48" viewBox="0 0 48 48" fill="none" xmlns="http://www.w3.org/2000/svg">
<g clip-path="url(#clip0_2129_590)">
<path d="M37.3704 40.9706C32.8696 45.4714 26.7651 48 20.3999 48V24.0891C20.3764 28.5126 18.6091 32.7498 15.4795 35.8794C12.3289 39.03 8.05574 40.8 3.6001 40.8L3.6001 7.2C8.05574 7.2 12.3289 8.97 15.4795 12.1206C18.6091 15.2502 20.3764 19.4874 20.3999 23.9109L20.3999 0C26.7651 1.23935e-06 32.8696 2.52857 37.3704 7.02944C41.8713 11.5303 44.3999 17.6348 44.3999 24C44.3999 30.3652 41.8713 36.4697 37.3704 40.9706Z" fill="#FF5634"/>
</g>
<defs>
<clipPath id="clip0_2129_590">
<rect width="48" height="48" fill="white"/>
</clipPath>
</defs>
</svg>
