<svg width="235" height="188" viewBox="0 0 235 188" fill="none" xmlns="http://www.w3.org/2000/svg">
<path d="M25.0387 167.531L20.5151 153.786H23.8226L27.7438 165.954H26.0958L30.1875 153.786H33.1426L37.0752 165.954H35.4839L39.4961 153.786H42.5421L38.0185 167.531H34.6315L31.1308 156.848H32.0401L28.4599 167.531H25.0501H25.0387Z" fill="#FF421B"/>
<path d="M47.7588 164.979H55.2603V167.531H44.5991V153.786H55.0102V156.338H47.7702V164.979H47.7588ZM47.5315 159.309H54.1578V161.804H47.5315V159.309Z" fill="#FF421B"/>
<path d="M63.3643 167.531V153.786H66.5694V167.531H63.3643Z" fill="#FF421B"/>
<path d="M69.8203 167.531V153.786H72.4572L80.5838 163.686H79.2994V153.786H82.4478V167.531H79.8109L71.6843 157.631H72.9686V167.531H69.8203Z" fill="#FF421B"/>
<path d="M85.7207 167.531V153.786H91.9719C93.4722 153.786 94.7906 154.07 95.9272 154.637C97.0638 155.204 97.9617 156.009 98.5982 157.03C99.2347 158.062 99.5643 159.264 99.5643 160.647C99.5643 162.031 99.246 163.244 98.5982 164.265C97.9503 165.297 97.0638 166.091 95.9272 166.658C94.7906 167.225 93.4722 167.508 91.9719 167.508H85.7207V167.531ZM88.9259 164.945H91.8128C92.7334 164.945 93.529 164.775 94.1996 164.423C94.8702 164.072 95.4044 163.584 95.7795 162.938C96.1545 162.291 96.3364 161.532 96.3364 160.67C96.3364 159.808 96.1545 159.037 95.7795 158.39C95.4044 157.755 94.8816 157.256 94.1996 156.905C93.529 156.553 92.7221 156.383 91.8128 156.383H88.9259V164.945Z" fill="#FF421B"/>
<path d="M105.145 164.979H112.647V167.531H101.985V153.786H112.396V156.338H105.156V164.979H105.145ZM104.906 159.309H111.533V161.804H104.906V159.309Z" fill="#FF421B"/>
<path d="M115.181 167.531V153.786H121.148C122.376 153.786 123.444 153.99 124.331 154.387C125.229 154.784 125.911 155.363 126.399 156.1C126.888 156.837 127.127 157.733 127.127 158.753C127.127 159.774 126.888 160.67 126.399 161.418C125.911 162.167 125.229 162.734 124.331 163.131C123.444 163.539 122.376 163.743 121.148 163.743H116.931L118.386 162.314V167.531H115.181ZM118.386 162.666L116.931 161.157H120.966C121.932 161.157 122.671 160.942 123.171 160.534C123.671 160.125 123.921 159.524 123.921 158.765C123.921 158.005 123.671 157.415 123.171 157.007C122.671 156.599 121.944 156.383 120.966 156.383H116.931L118.386 154.875V162.666Z" fill="#FF421B"/>
<path d="M132.753 164.979H140.254V167.531H129.593V153.786H140.004V156.338H132.764V164.979H132.753ZM132.514 159.309H139.141V161.804H132.514V159.309Z" fill="#FF421B"/>
<path d="M142.789 167.531V153.786H145.425L153.552 163.686H152.268V153.786H155.416V167.531H152.779L144.653 157.631H145.937V167.531H142.789Z" fill="#FF421B"/>
<path d="M158.689 167.531V153.786H164.941C166.441 153.786 167.759 154.07 168.896 154.637C170.033 155.204 170.93 156.009 171.567 157.03C172.203 158.062 172.533 159.264 172.533 160.647C172.533 162.031 172.215 163.244 171.567 164.265C170.919 165.297 170.033 166.091 168.896 166.658C167.759 167.225 166.441 167.508 164.941 167.508H158.689V167.531ZM161.895 164.945H164.782C165.702 164.945 166.498 164.775 167.168 164.423C167.839 164.072 168.373 163.584 168.748 162.938C169.123 162.291 169.305 161.532 169.305 160.67C169.305 159.808 169.123 159.037 168.748 158.39C168.373 157.755 167.85 157.256 167.168 156.905C166.498 156.553 165.691 156.383 164.782 156.383H161.895V164.945Z" fill="#FF421B"/>
<path d="M178.103 164.979H185.604V167.531H174.943V153.786H185.354V156.338H178.114V164.979H178.103ZM177.875 159.309H184.502V161.804H177.875V159.309Z" fill="#FF421B"/>
<path d="M188.139 167.531V153.786H190.776L198.902 163.686H197.618V153.786H200.766V167.531H198.129L190.003 157.631H191.287V167.531H188.139Z" fill="#FF421B"/>
<path d="M206.892 167.531V156.383H202.482V153.786H214.484V156.383H210.074V167.531H206.881H206.892Z" fill="#FF421B"/>
<mask id="mask0_1179_811" style="mask-type:luminance" maskUnits="userSpaceOnUse" x="44" y="20" width="147" height="119">
<path d="M190.241 20.4697H44.7588V138.409H190.241V20.4697Z" fill="white"/>
</mask>
<g mask="url(#mask0_1179_811)">
<path d="M106.18 103.005C105.873 96.9491 112.499 81.2881 122.399 88.7613C128.719 95.5315 117.398 113.789 108.953 116.795C107.555 113.857 105.816 108.993 106.18 103.005ZM181.422 47.6413C148.154 -8.84488 112.727 37.9226 142.448 52.7671C173.75 68.4055 166.874 126.23 128.173 127.25C121.319 127.432 114.375 124.347 110.385 118.915C119.694 113.347 128.878 107.042 132.151 96.8697C135.231 87.2758 130.901 76.7973 121.49 74.2571C109.09 70.9117 97.2693 82.9211 94.0641 93.9666C91.484 102.857 92.9161 112.996 97.9285 121.059C54.4087 128.895 42.1336 78.3623 81.2321 67.2941C89.37 64.992 87.3582 53.4929 75.7651 55.9878C28.415 66.1941 34.4844 142.186 99.5992 123.531C105.169 131.685 114.216 135.336 123.479 137.219C172.92 147.255 207.245 91.483 181.422 47.63" fill="#FF421B"/>
<path d="M125.445 52.7443C125.218 66.3867 105.168 66.3867 104.93 52.7443C105.157 39.1018 125.206 39.1018 125.445 52.7443Z" fill="#FF421B"/>
</g>
</svg>
